<?xml version="1.0" encoding="iso-8859-1"?>
<!-- Generator: Adobe Illustrator 19.0.0, SVG Export Plug-In . SVG Version: 6.00 Build 0)  -->
<svg version="1.1" id="Capa_1" xmlns="http://www.w3.org/2000/svg" xmlns:xlink="http://www.w3.org/1999/xlink" x="0px" y="0px"
	 viewBox="0 0 512 512" style="enable-background:new 0 0 512 512;" xml:space="preserve">
<g>
	<g>
		<path d="M437.019,74.981C388.667,26.628,324.38,0,256,0S123.333,26.628,74.981,74.981C26.628,123.333,0,187.62,0,256
			s26.628,132.667,74.981,181.019C123.333,485.372,187.62,512,256,512s132.667-26.628,181.019-74.981
			C485.372,388.667,512,324.38,512,256S485.372,123.333,437.019,74.981z M491.787,246.364h-15.174
			c-1.722-32.401-10.078-64.62-24.314-93.569c-2.438-4.958-8.433-6.998-13.386-4.561c-4.956,2.437-6.998,8.431-4.561,13.386
			c12.896,26.225,20.52,55.384,22.221,84.744h-33.858c-2.212-38.688-17.653-73.886-41.86-101.139l48.828-48.828
			C466.321,136.235,489.457,188.663,491.787,246.364z M265.798,20.219c57.606,2.365,109.948,25.469,149.741,62.038l-48.83,48.83
			c-27.206-24.139-62.318-39.547-100.911-41.791V20.219z M245.798,20.234v69.087c-38.456,2.329-73.436,17.729-100.553,41.807
			L96.416,82.299C136.122,45.791,188.329,22.691,245.798,20.234z M82.274,96.443l48.829,48.829
			c-24.183,27.246-39.608,62.427-41.819,101.092H20.213C22.542,188.685,45.661,136.275,82.274,96.443z M20.24,266.364h69.091
			c2.361,38.37,17.734,73.272,41.755,100.345l-48.83,48.83C45.807,375.876,22.733,323.747,20.24,266.364z M245.798,491.765
			c-57.478-2.458-109.693-25.564-149.401-62.083l48.828-48.827c27.12,24.088,62.108,39.494,100.573,41.824V491.765z M109,256
			c0-81.056,65.944-147,147-147s147,65.944,147,147c0,40.211-16.235,76.698-42.487,103.265c-0.229,0.191-0.454,0.39-0.669,0.605
			c-0.214,0.214-0.41,0.437-0.601,0.665C332.678,386.774,296.2,403,256,403C174.944,403,109,337.056,109,256z M265.797,491.781
			v-69.076h0.001c38.602-2.245,73.722-17.659,100.93-41.809l48.829,48.829C375.762,466.304,323.412,489.415,265.797,491.781z
			 M429.701,415.584l-48.829-48.828c24.045-27.079,39.434-61.999,41.797-100.391h69.091
			C489.266,323.769,466.175,375.916,429.701,415.584z"/>
	</g>
</g>
<g>
	<g>
		<path d="M434.364,122.265c-3.167-4.523-9.402-5.625-13.927-2.457c-4.524,3.167-5.625,9.402-2.458,13.927l0.01,0.015
			c1.944,2.777,5.042,4.261,8.191,4.261c1.981,0,3.984-0.588,5.731-1.811C436.435,133.033,437.531,126.79,434.364,122.265z"/>
	</g>
</g>
<g>
	<g>
		<path d="M255.204,127.001c-0.021,0-0.042,0-0.063,0l-0.317,0.002c-5.523,0.034-9.972,4.539-9.938,10.062
			c0.034,5.501,4.505,9.938,9.999,9.938c0.021,0,0.042,0,0.063,0l0.317-0.002c5.523-0.034,9.972-4.539,9.938-10.062
			C265.169,131.437,260.699,127.001,255.204,127.001z"/>
	</g>
</g>
<g>
	<g>
		<path d="M360.776,180.725c-15.285-21.227-36.313-37.141-60.813-46.022c-5.19-1.88-10.927,0.801-12.809,5.994
			c-1.882,5.192,0.801,10.927,5.994,12.809c42.618,15.449,71.499,56.285,71.865,101.617
			c0.486,60.104-48.017,109.398-108.121,109.885c-0.301,0.002-0.595,0.003-0.896,0.003
			c-59.695-0.003-108.505-48.321-108.989-108.125c-0.366-45.332,27.85-86.63,70.214-102.766c5.161-1.966,7.751-7.744,5.786-12.905
			c-1.966-5.161-7.743-7.75-12.905-5.786c-24.353,9.276-45.122,25.528-60.062,47c-15.285,21.968-23.25,47.771-23.032,74.619
			c0.571,70.78,58.331,127.966,128.984,127.962c0.351,0,0.708-0.001,1.061-0.004c71.132-0.575,128.534-58.914,127.958-130.046
			C384.794,228.113,376.413,202.442,360.776,180.725z"/>
	</g>
</g>
<g>
	<g>
		<path d="M294.916,190c-22.526,0-40.853,18.326-40.853,40.852v50.296h0c0,22.526,18.326,40.852,40.853,40.852
			c22.526,0,40.852-18.326,40.852-40.852v-50.296C335.768,208.326,317.442,190,294.916,190z M315.768,281.148
			c0,11.498-9.354,20.852-20.852,20.852s-20.853-9.354-20.853-20.852v-50.296c0-11.498,9.354-20.852,20.853-20.852
			c11.499,0,20.852,9.354,20.852,20.852V281.148z"/>
	</g>
</g>
<g>
	<g>
		<path d="M208.179,239.919c-4.108,0-8.124,0.6-11.947,1.757V210h42.986c5.523,0,10-4.477,10-10s-4.477-10-10-10h-52.986
			c-5.523,0-10,4.477-10,10v59.01c0,4.044,2.437,7.691,6.173,9.239c3.738,1.549,8.038,0.692,10.898-2.168
			c3.974-3.974,9.257-6.162,14.876-6.162c5.62,0,10.903,2.188,14.877,6.163c3.974,3.974,6.162,9.256,6.162,14.876
			s-2.188,10.903-6.163,14.876c-8.203,8.204-21.551,8.203-29.752,0c-3.905-3.905-10.237-3.905-14.143,0
			c-3.905,3.905-3.905,10.237,0,14.143c8,8,18.51,12,29.019,12c10.509,0,21.019-4,29.019-12c7.751-7.751,12.02-18.057,12.02-29.019
			c0-10.962-4.269-21.268-12.02-29.018C229.447,244.189,219.141,239.919,208.179,239.919z"/>
	</g>
</g>
<g>
</g>
<g>
</g>
<g>
</g>
<g>
</g>
<g>
</g>
<g>
</g>
<g>
</g>
<g>
</g>
<g>
</g>
<g>
</g>
<g>
</g>
<g>
</g>
<g>
</g>
<g>
</g>
<g>
</g>
</svg>
